<svg xmlns="http://www.w3.org/2000/svg" xmlns:xlink="http://www.w3.org/1999/xlink" width="1080" zoomAndPan="magnify" viewBox="0 0 810 1012.49997" height="1350" preserveAspectRatio="xMidYMid meet" version="1.0"><defs><g/><clipPath id="224bed70e2"><path d="M 0.199219 0 L 809.800781 0 L 809.800781 1012 L 0.199219 1012 Z M 0.199219 0 " clip-rule="nonzero"/></clipPath><clipPath id="93bcba63ac"><rect x="0" width="708" y="0" height="319"/></clipPath><clipPath id="3164ce4672"><rect x="0" width="681" y="0" height="50"/></clipPath></defs><g clip-path="url(#224bed70e2)"><path fill="#ffffff" d="M 0.199219 0 L 809.800781 0 L 809.800781 1012 L 0.199219 1012 Z M 0.199219 0 " fill-opacity="1" fill-rule="nonzero"/><path fill="#ffffff" d="M 0.199219 0 L 809.800781 0 L 809.800781 1012 L 0.199219 1012 Z M 0.199219 0 " fill-opacity="1" fill-rule="nonzero"/></g><g transform="matrix(1, 0, 0, 1, 48, 324)"><g clip-path="url(#93bcba63ac)"><g fill="#988051" fill-opacity="1"><g transform="translate(0.68966, 228.609825)"><g><path d="M 40.015625 -1.65625 L 83.59375 -1.65625 L 83.59375 0 L 40.015625 0 C 34.578125 0 29.601562 -1.335938 25.09375 -4.015625 C 20.59375 -6.691406 17.003906 -10.257812 14.328125 -14.71875 C 11.660156 -19.175781 10.328125 -24.125 10.328125 -29.5625 L 10.328125 -115.203125 L 83.59375 -115.203125 L 83.59375 -113.546875 L 40.015625 -113.546875 L 40.015625 -59.25 L 78.75 -59.25 L 78.75 -57.59375 L 40.015625 -57.59375 Z M 40.015625 -1.65625 "/></g></g></g><g fill="#988051" fill-opacity="1"><g transform="translate(82.245202, 228.609825)"><g><path d="M 8.671875 -115.203125 C 13.847656 -115.203125 18.5625 -113.945312 22.8125 -111.4375 C 27.0625 -108.9375 30.4375 -105.582031 32.9375 -101.375 C 35.445312 -97.164062 36.703125 -92.472656 36.703125 -87.296875 L 36.703125 0 C 31.597656 0 26.921875 -1.25 22.671875 -3.75 C 18.429688 -6.257812 15.035156 -9.640625 12.484375 -13.890625 C 9.941406 -18.140625 8.671875 -22.851562 8.671875 -28.03125 Z M 8.671875 -115.203125 "/></g></g></g><g fill="#988051" fill-opacity="1"><g transform="translate(119.454659, 228.609825)"><g><path d="M 71.359375 -28.546875 C 71.359375 -23.109375 70 -18.242188 67.28125 -13.953125 C 64.5625 -9.660156 60.757812 -6.257812 55.875 -3.75 C 50.988281 -1.25 45.234375 0 38.609375 0 C 32.492188 0 26.90625 -1.25 21.84375 -3.75 C 16.789062 -6.257812 12.78125 -9.828125 9.8125 -14.453125 C 6.84375 -19.085938 5.359375 -24.550781 5.359375 -30.84375 L 7.015625 -30.84375 C 7.015625 -25.0625 8.414062 -19.984375 11.21875 -15.609375 C 14.019531 -11.234375 17.863281 -7.8125 22.75 -5.34375 C 27.632812 -2.882812 33.257812 -1.65625 39.625 -1.65625 C 45.488281 -1.65625 50.179688 -2.628906 53.703125 -4.578125 C 57.234375 -6.535156 59 -9.46875 59 -13.375 C 59 -16.175781 58.019531 -18.46875 56.0625 -20.25 C 54.113281 -22.039062 51.523438 -23.550781 48.296875 -24.78125 C 45.066406 -26.019531 41.519531 -27.164062 37.65625 -28.21875 C 33.789062 -29.28125 29.945312 -30.488281 26.125 -31.84375 C 22.300781 -33.207031 18.773438 -34.972656 15.546875 -37.140625 C 12.316406 -39.304688 9.722656 -42.066406 7.765625 -45.421875 C 5.816406 -48.785156 4.84375 -52.972656 4.84375 -57.984375 C 4.84375 -63.421875 6.132812 -68.21875 8.71875 -72.375 C 11.3125 -76.539062 14.988281 -79.789062 19.75 -82.125 C 24.507812 -84.46875 30.078125 -85.640625 36.453125 -85.640625 C 45.285156 -85.640625 52.460938 -83.28125 57.984375 -78.5625 C 63.503906 -73.84375 66.265625 -66.769531 66.265625 -57.34375 L 64.859375 -57.34375 C 64.859375 -66.175781 62.222656 -72.820312 56.953125 -77.28125 C 51.691406 -81.75 44.859375 -83.984375 36.453125 -83.984375 C 30.671875 -83.984375 26.015625 -82.921875 22.484375 -80.796875 C 18.960938 -78.671875 17.203125 -75.738281 17.203125 -72 C 17.203125 -69.113281 18.175781 -66.734375 20.125 -64.859375 C 22.082031 -62.992188 24.675781 -61.378906 27.90625 -60.015625 C 31.132812 -58.660156 34.679688 -57.410156 38.546875 -56.265625 C 42.410156 -55.117188 46.253906 -53.84375 50.078125 -52.4375 C 53.898438 -51.03125 57.425781 -49.304688 60.65625 -47.265625 C 63.882812 -45.234375 66.472656 -42.707031 68.421875 -39.6875 C 70.378906 -36.675781 71.359375 -32.960938 71.359375 -28.546875 Z M 71.359375 -28.546875 "/></g></g></g><g fill="#988051" fill-opacity="1"><g transform="translate(187.247612, 228.609825)"><g><path d="M 79.265625 -82.328125 L 56.453125 -61.546875 L 90.46875 0 L 75.3125 0 C 70.125 0 65.28125 -1.359375 60.78125 -4.078125 C 56.28125 -6.796875 52.84375 -10.492188 50.46875 -15.171875 L 36.703125 -41.671875 L 36.703125 0 C 31.597656 0 26.921875 -1.25 22.671875 -3.75 C 18.429688 -6.257812 15.035156 -9.640625 12.484375 -13.890625 C 9.941406 -18.140625 8.671875 -22.851562 8.671875 -28.03125 L 8.671875 -115.203125 C 13.847656 -115.203125 18.5625 -113.945312 22.8125 -111.4375 C 27.0625 -108.9375 30.4375 -105.582031 32.9375 -101.375 C 35.445312 -97.164062 36.703125 -92.472656 36.703125 -87.296875 L 36.703125 -46.125 L 76.453125 -82.328125 Z M 79.265625 -82.328125 "/></g></g></g><g fill="#988051" fill-opacity="1"><g transform="translate(271.096927, 228.609825)"><g><path d="M 87.546875 -30.84375 C 86.953125 -23.707031 85 -17.863281 81.6875 -13.3125 C 78.375 -8.769531 74.144531 -5.414062 69 -3.25 C 63.863281 -1.082031 58.109375 0 51.734375 0 C 42.390625 0 34.171875 -1.78125 27.078125 -5.34375 C 19.984375 -8.914062 14.4375 -13.929688 10.4375 -20.390625 C 6.445312 -26.847656 4.453125 -34.363281 4.453125 -42.9375 C 4.453125 -51.519531 6.300781 -59 10 -65.375 C 13.695312 -71.75 18.796875 -76.71875 25.296875 -80.28125 C 31.796875 -83.851562 39.289062 -85.640625 47.78125 -85.640625 C 53.050781 -85.640625 58.0625 -84.832031 62.8125 -83.21875 C 67.570312 -81.601562 71.738281 -79.050781 75.3125 -75.5625 C 78.882812 -72.082031 81.664062 -67.625 83.65625 -62.1875 C 85.65625 -56.75 86.570312 -50.207031 86.40625 -42.5625 L 34.15625 -42.5625 C 34.15625 -33.132812 35.171875 -25.65625 37.203125 -20.125 C 39.242188 -14.601562 42.195312 -10.632812 46.0625 -8.21875 C 49.925781 -5.800781 54.578125 -4.59375 60.015625 -4.59375 C 64.347656 -4.59375 68.363281 -5.484375 72.0625 -7.265625 C 75.757812 -9.046875 78.859375 -11.867188 81.359375 -15.734375 C 83.867188 -19.597656 85.421875 -24.632812 86.015625 -30.84375 Z M 47.65625 -83.984375 C 42.894531 -83.984375 39.472656 -80.5625 37.390625 -73.71875 C 35.316406 -66.882812 34.238281 -57.007812 34.15625 -44.09375 L 59.25 -44.09375 C 59.25 -46.8125 59.25 -49.929688 59.25 -53.453125 C 59.25 -56.984375 59.097656 -60.53125 58.796875 -64.09375 C 58.503906 -67.664062 57.953125 -70.957031 57.140625 -73.96875 C 56.335938 -76.988281 55.171875 -79.410156 53.640625 -81.234375 C 52.117188 -83.066406 50.125 -83.984375 47.65625 -83.984375 Z M 47.65625 -83.984375 "/></g></g></g><g fill="#988051" fill-opacity="1"><g transform="translate(355.201081, 228.609825)"><g/></g></g><g fill="#988051" fill-opacity="1"><g transform="translate(366.159695, 228.609825)"><g><path d="M 40.015625 -1.65625 L 83.984375 -1.65625 L 83.984375 0 L 40.015625 0 C 34.578125 0 29.601562 -1.335938 25.09375 -4.015625 C 20.59375 -6.691406 17.003906 -10.257812 14.328125 -14.71875 C 11.660156 -19.175781 10.328125 -24.125 10.328125 -29.5625 L 10.328125 -115.203125 C 15.847656 -115.203125 20.835938 -113.863281 25.296875 -111.1875 C 29.753906 -108.507812 33.320312 -104.941406 36 -100.484375 C 38.675781 -96.023438 40.015625 -91.078125 40.015625 -85.640625 Z M 40.015625 -1.65625 "/></g></g></g><g fill="#988051" fill-opacity="1"><g transform="translate(445.166623, 228.609825)"><g><path d="M 87.546875 -30.84375 C 86.953125 -23.707031 85 -17.863281 81.6875 -13.3125 C 78.375 -8.769531 74.144531 -5.414062 69 -3.25 C 63.863281 -1.082031 58.109375 0 51.734375 0 C 42.390625 0 34.171875 -1.78125 27.078125 -5.34375 C 19.984375 -8.914062 14.4375 -13.929688 10.4375 -20.390625 C 6.445312 -26.847656 4.453125 -34.363281 4.453125 -42.9375 C 4.453125 -51.519531 6.300781 -59 10 -65.375 C 13.695312 -71.75 18.796875 -76.71875 25.296875 -80.28125 C 31.796875 -83.851562 39.289062 -85.640625 47.78125 -85.640625 C 53.050781 -85.640625 58.0625 -84.832031 62.8125 -83.21875 C 67.570312 -81.601562 71.738281 -79.050781 75.3125 -75.5625 C 78.882812 -72.082031 81.664062 -67.625 83.65625 -62.1875 C 85.65625 -56.75 86.570312 -50.207031 86.40625 -42.5625 L 34.15625 -42.5625 C 34.15625 -33.132812 35.171875 -25.65625 37.203125 -20.125 C 39.242188 -14.601562 42.195312 -10.632812 46.0625 -8.21875 C 49.925781 -5.800781 54.578125 -4.59375 60.015625 -4.59375 C 64.347656 -4.59375 68.363281 -5.484375 72.0625 -7.265625 C 75.757812 -9.046875 78.859375 -11.867188 81.359375 -15.734375 C 83.867188 -19.597656 85.421875 -24.632812 86.015625 -30.84375 Z M 47.65625 -83.984375 C 42.894531 -83.984375 39.472656 -80.5625 37.390625 -73.71875 C 35.316406 -66.882812 34.238281 -57.007812 34.15625 -44.09375 L 59.25 -44.09375 C 59.25 -46.8125 59.25 -49.929688 59.25 -53.453125 C 59.25 -56.984375 59.097656 -60.53125 58.796875 -64.09375 C 58.503906 -67.664062 57.953125 -70.957031 57.140625 -73.96875 C 56.335938 -76.988281 55.171875 -79.410156 53.640625 -81.234375 C 52.117188 -83.066406 50.125 -83.984375 47.65625 -83.984375 Z M 47.65625 -83.984375 "/></g></g></g><g fill="#988051" fill-opacity="1"><g transform="translate(529.270805, 228.609825)"><g><path d="M 53.78125 -76.203125 C 50.375 -76.203125 47.460938 -74.882812 45.046875 -72.25 C 42.628906 -69.613281 40.71875 -66.066406 39.3125 -61.609375 C 37.90625 -57.148438 37.035156 -52.160156 36.703125 -46.640625 L 36.703125 0 L 32.375 0 C 28.039062 0 24.085938 -1.0625 20.515625 -3.1875 C 16.953125 -5.3125 14.085938 -8.175781 11.921875 -11.78125 C 9.753906 -15.394531 8.671875 -19.367188 8.671875 -23.703125 L 8.671875 -82.328125 L 13 -82.328125 C 17.414062 -82.328125 21.40625 -81.265625 24.96875 -79.140625 C 28.539062 -77.015625 31.390625 -74.164062 33.515625 -70.59375 C 35.640625 -67.03125 36.703125 -63.039062 36.703125 -58.625 C 38.398438 -66.175781 41.414062 -72.289062 45.75 -76.96875 C 50.082031 -81.644531 56.328125 -83.984375 64.484375 -83.984375 C 73.234375 -83.984375 79.921875 -81.328125 84.546875 -76.015625 C 89.179688 -70.703125 91.5 -63.628906 91.5 -54.796875 L 91.5 0 L 87.15625 0 C 82.832031 0 78.882812 -1.0625 75.3125 -3.1875 C 71.738281 -5.3125 68.867188 -8.175781 66.703125 -11.78125 C 64.546875 -15.394531 63.46875 -19.367188 63.46875 -23.703125 L 63.46875 -61.9375 C 63.46875 -71.445312 60.238281 -76.203125 53.78125 -76.203125 Z M 53.78125 -76.203125 "/></g></g></g><g fill="#988051" fill-opacity="1"><g transform="translate(620.765959, 228.609825)"><g><path d="M 47.78125 -85.640625 C 55.007812 -85.640625 61.382812 -84.40625 66.90625 -81.9375 C 72.425781 -79.476562 76.734375 -75.632812 79.828125 -70.40625 C 82.929688 -65.175781 84.441406 -58.484375 84.359375 -50.328125 L 84.359375 0 C 79.347656 0 74.78125 -1.226562 70.65625 -3.6875 C 66.539062 -6.15625 63.25 -9.46875 60.78125 -13.625 C 58.320312 -17.789062 57.09375 -22.378906 57.09375 -27.390625 L 57.09375 -29.8125 C 55.90625 -22.757812 53.78125 -17.023438 50.71875 -12.609375 C 47.65625 -8.191406 43.875 -4.984375 39.375 -2.984375 C 34.875 -0.992188 29.863281 0 24.34375 0 C 19.664062 0 15.835938 -0.867188 12.859375 -2.609375 C 9.890625 -4.347656 7.722656 -6.617188 6.359375 -9.421875 C 5.003906 -12.234375 4.328125 -15.125 4.328125 -18.09375 C 4.328125 -23.789062 6.429688 -28.675781 10.640625 -32.75 C 14.847656 -36.820312 20.859375 -40.132812 28.671875 -42.6875 C 36.484375 -45.238281 45.742188 -46.984375 56.453125 -47.921875 L 56.453125 -59 C 56.453125 -66.90625 55.070312 -72.703125 52.3125 -76.390625 C 49.550781 -80.085938 44.984375 -81.9375 38.609375 -81.9375 C 33.171875 -81.9375 28.265625 -80.535156 23.890625 -77.734375 C 19.515625 -74.929688 16.222656 -70.851562 14.015625 -65.5 L 12.234375 -65.5 C 14.785156 -72.039062 19.078125 -77.03125 25.109375 -80.46875 C 31.140625 -83.914062 38.695312 -85.640625 47.78125 -85.640625 Z M 32.375 -23.578125 C 32.375 -19.671875 33.222656 -16.738281 34.921875 -14.78125 C 36.617188 -12.820312 38.867188 -11.84375 41.671875 -11.84375 C 43.796875 -11.84375 46.003906 -12.773438 48.296875 -14.640625 C 50.585938 -16.515625 52.519531 -19.703125 54.09375 -24.203125 C 55.664062 -28.710938 56.453125 -34.914062 56.453125 -42.8125 L 56.453125 -46.640625 C 49.398438 -45.535156 43.625 -43.03125 39.125 -39.125 C 34.625 -35.21875 32.375 -30.035156 32.375 -23.578125 Z M 32.375 -23.578125 "/></g></g></g></g></g><g transform="matrix(1, 0, 0, 1, 72, 596)"><g clip-path="url(#3164ce4672)"><g fill="#988051" fill-opacity="1"><g transform="translate(1.541826, 36.704445)"><g><path d="M 3.015625 0 L 3.015625 -33.578125 L 5.125 -33.578125 L 5.125 0 Z M 3.015625 0 "/></g></g></g><g fill="#988051" fill-opacity="1"><g transform="translate(24.087464, 36.704445)"><g><path d="M 16.6875 0.4375 L 4.9375 -26.625 L 4.703125 -26.625 L 4.703125 0 L 2.6875 0 L 2.6875 -34.015625 L 3.6875 -34.015625 L 15.15625 -7.671875 L 15.453125 -7.671875 L 15.453125 -33.578125 L 17.453125 -33.578125 L 17.453125 0.4375 Z M 16.6875 0.4375 "/></g></g></g><g fill="#988051" fill-opacity="1"><g transform="translate(58.622467, 36.704445)"><g><path d="M 8.921875 0.4375 L 0.90625 -33.578125 L 3.125 -33.578125 L 9.3125 -6.375 L 9.59375 -6.375 L 15.78125 -33.578125 L 17.890625 -33.578125 L 9.875 0.4375 Z M 8.921875 0.4375 "/></g></g></g><g fill="#988051" fill-opacity="1"><g transform="translate(91.814669, 36.704445)"><g><path d="M 2.6875 0 L 2.6875 -33.578125 L 14.109375 -33.578125 L 14.109375 -31.65625 L 4.796875 -31.65625 L 4.796875 -18.859375 L 13.28125 -18.859375 L 13.28125 -16.9375 L 4.796875 -16.9375 L 4.796875 -1.921875 L 14.25 -1.921875 L 14.25 0 Z M 2.6875 0 "/></g></g></g><g fill="#988051" fill-opacity="1"><g transform="translate(121.793722, 36.704445)"><g><path d="M 7.4375 0.4375 C 5.382812 0.4375 3.273438 -0.265625 1.109375 -1.671875 L 1.921875 -3.640625 C 3.035156 -2.878906 4.03125 -2.34375 4.90625 -2.03125 C 5.789062 -1.726562 6.648438 -1.578125 7.484375 -1.578125 C 8.921875 -1.578125 10.054688 -2.023438 10.890625 -2.921875 C 11.722656 -3.816406 12.140625 -5.019531 12.140625 -6.53125 C 12.140625 -7.488281 12.007812 -8.375 11.75 -9.1875 C 11.5 -10 11.03125 -10.941406 10.34375 -12.015625 C 9.65625 -13.085938 8.6875 -14.457031 7.4375 -16.125 C 5.9375 -18.132812 4.785156 -19.753906 3.984375 -20.984375 C 3.179688 -22.210938 2.628906 -23.273438 2.328125 -24.171875 C 2.023438 -25.066406 1.875 -26.023438 1.875 -27.046875 C 1.875 -28.390625 2.164062 -29.585938 2.75 -30.640625 C 3.34375 -31.703125 4.132812 -32.53125 5.125 -33.125 C 6.125 -33.71875 7.226562 -34.015625 8.4375 -34.015625 C 9.394531 -34.015625 10.273438 -33.875 11.078125 -33.59375 C 11.878906 -33.320312 12.695312 -32.945312 13.53125 -32.46875 L 13.53125 -30.078125 C 11.675781 -31.359375 9.960938 -32 8.390625 -32 C 7.078125 -32 6.015625 -31.550781 5.203125 -30.65625 C 4.390625 -29.757812 3.984375 -28.609375 3.984375 -27.203125 C 3.984375 -26.335938 4.117188 -25.507812 4.390625 -24.71875 C 4.660156 -23.9375 5.140625 -23.035156 5.828125 -22.015625 C 6.515625 -20.992188 7.484375 -19.679688 8.734375 -18.078125 C 10.109375 -16.390625 11.191406 -14.910156 11.984375 -13.640625 C 12.785156 -12.378906 13.363281 -11.203125 13.71875 -10.109375 C 14.070312 -9.023438 14.25 -7.878906 14.25 -6.671875 C 14.25 -5.265625 13.941406 -4.023438 13.328125 -2.953125 C 12.722656 -1.878906 11.910156 -1.046875 10.890625 -0.453125 C 9.867188 0.140625 8.71875 0.4375 7.4375 0.4375 Z M 7.4375 0.4375 "/></g></g></g><g fill="#988051" fill-opacity="1"><g transform="translate(152.156419, 36.704445)"><g><path d="M 6.046875 0 L 6.046875 -31.65625 L 0.578125 -31.65625 L 0.578125 -33.578125 L 13.625 -33.578125 L 13.625 -31.65625 L 8.15625 -31.65625 L 8.15625 0 Z M 6.046875 0 "/></g></g></g><g fill="#988051" fill-opacity="1"><g transform="translate(180.744712, 36.704445)"><g><path d="M 2.453125 -9.984375 L 2.453125 -11.703125 L 10.84375 -11.703125 L 10.84375 -9.984375 Z M 2.453125 -9.984375 "/></g></g></g><g fill="#988051" fill-opacity="1"><g transform="translate(208.469768, 36.704445)"><g><path d="M 2.6875 0 L 2.6875 -33.578125 L 7.34375 -33.578125 C 9.03125 -33.578125 10.570312 -33.207031 11.96875 -32.46875 C 13.363281 -31.738281 14.46875 -30.691406 15.28125 -29.328125 C 16.09375 -27.972656 16.5 -26.335938 16.5 -24.421875 C 16.5 -22.367188 15.992188 -20.539062 14.984375 -18.9375 C 13.984375 -17.34375 12.570312 -16.195312 10.75 -15.5 L 16.890625 0 L 14.390625 0 L 8.78125 -14.875 L 4.796875 -14.875 L 4.796875 0 Z M 4.796875 -16.84375 L 7.34375 -16.84375 C 8.6875 -16.84375 9.890625 -17.164062 10.953125 -17.8125 C 12.023438 -18.46875 12.863281 -19.363281 13.46875 -20.5 C 14.082031 -21.632812 14.390625 -22.925781 14.390625 -24.375 C 14.390625 -26.644531 13.71875 -28.425781 12.375 -29.71875 C 11.03125 -31.007812 9.320312 -31.65625 7.25 -31.65625 L 4.796875 -31.65625 Z M 4.796875 -16.84375 "/></g></g></g><g fill="#988051" fill-opacity="1"><g transform="translate(241.230339, 36.704445)"><g><path d="M 2.6875 0 L 2.6875 -33.578125 L 14.109375 -33.578125 L 14.109375 -31.65625 L 4.796875 -31.65625 L 4.796875 -18.859375 L 13.28125 -18.859375 L 13.28125 -16.9375 L 4.796875 -16.9375 L 4.796875 -1.921875 L 14.25 -1.921875 L 14.25 0 Z M 2.6875 0 "/></g></g></g><g fill="#988051" fill-opacity="1"><g transform="translate(271.209391, 36.704445)"><g><path d="M 16.6875 0.4375 L 4.9375 -26.625 L 4.703125 -26.625 L 4.703125 0 L 2.6875 0 L 2.6875 -34.015625 L 3.6875 -34.015625 L 15.15625 -7.671875 L 15.453125 -7.671875 L 15.453125 -33.578125 L 17.453125 -33.578125 L 17.453125 0.4375 Z M 16.6875 0.4375 "/></g></g></g><g fill="#988051" fill-opacity="1"><g transform="translate(305.744393, 36.704445)"><g><path d="M 9.734375 0.4375 C 7.460938 0.4375 5.566406 -1.039062 4.046875 -4 C 2.535156 -6.957031 1.78125 -11.222656 1.78125 -16.796875 C 1.78125 -22.359375 2.535156 -26.617188 4.046875 -29.578125 C 5.566406 -32.535156 7.460938 -34.015625 9.734375 -34.015625 C 12.003906 -34.015625 13.898438 -32.535156 15.421875 -29.578125 C 16.941406 -26.617188 17.703125 -22.359375 17.703125 -16.796875 C 17.703125 -11.222656 16.941406 -6.957031 15.421875 -4 C 13.898438 -1.039062 12.003906 0.4375 9.734375 0.4375 Z M 9.734375 -1.484375 C 11.398438 -1.484375 12.789062 -2.800781 13.90625 -5.4375 C 15.03125 -8.082031 15.59375 -11.867188 15.59375 -16.796875 C 15.59375 -21.710938 15.03125 -25.488281 13.90625 -28.125 C 12.789062 -30.769531 11.398438 -32.09375 9.734375 -32.09375 C 8.078125 -32.09375 6.6875 -30.769531 5.5625 -28.125 C 4.445312 -25.488281 3.890625 -21.710938 3.890625 -16.796875 C 3.890625 -11.867188 4.445312 -8.082031 5.5625 -5.4375 C 6.6875 -2.800781 8.078125 -1.484375 9.734375 -1.484375 Z M 9.734375 -1.484375 "/></g></g></g><g fill="#988051" fill-opacity="1"><g transform="translate(339.607996, 36.704445)"><g><path d="M 8.921875 0.4375 L 0.90625 -33.578125 L 3.125 -33.578125 L 9.3125 -6.375 L 9.59375 -6.375 L 15.78125 -33.578125 L 17.890625 -33.578125 L 9.875 0.4375 Z M 8.921875 0.4375 "/></g></g></g><g fill="#988051" fill-opacity="1"><g transform="translate(372.800199, 36.704445)"><g><path d="M 1.34375 0 L 9.359375 -34.015625 L 10.3125 -34.015625 L 18.328125 0 L 16.125 0 L 14.15625 -9.40625 L 5.421875 -9.40625 L 3.453125 0 Z M 5.796875 -11.328125 L 13.765625 -11.328125 L 9.921875 -27.828125 L 9.640625 -27.828125 Z M 5.796875 -11.328125 "/></g></g></g><g fill="#988051" fill-opacity="1"><g transform="translate(406.85561, 36.704445)"><g><path d="M 6.046875 0 L 6.046875 -31.65625 L 0.578125 -31.65625 L 0.578125 -33.578125 L 13.625 -33.578125 L 13.625 -31.65625 L 8.15625 -31.65625 L 8.15625 0 Z M 6.046875 0 "/></g></g></g><g fill="#988051" fill-opacity="1"><g transform="translate(435.443903, 36.704445)"><g><path d="M 2.6875 0 L 2.6875 -33.578125 L 14.109375 -33.578125 L 14.109375 -31.65625 L 4.796875 -31.65625 L 4.796875 -18.859375 L 13.28125 -18.859375 L 13.28125 -16.9375 L 4.796875 -16.9375 L 4.796875 -1.921875 L 14.25 -1.921875 L 14.25 0 Z M 2.6875 0 "/></g></g></g><g fill="#988051" fill-opacity="1"><g transform="translate(465.422928, 36.704445)"><g><path d="M 2.453125 -9.984375 L 2.453125 -11.703125 L 10.84375 -11.703125 L 10.84375 -9.984375 Z M 2.453125 -9.984375 "/></g></g></g><g fill="#988051" fill-opacity="1"><g transform="translate(493.148012, 36.704445)"><g><path d="M 2.6875 0 L 2.6875 -33.578125 L 7.046875 -33.578125 C 10.179688 -33.578125 12.691406 -32.128906 14.578125 -29.234375 C 16.460938 -26.335938 17.40625 -22.207031 17.40625 -16.84375 C 17.40625 -11.46875 16.460938 -7.316406 14.578125 -4.390625 C 12.691406 -1.460938 10.179688 0 7.046875 0 Z M 4.796875 -1.921875 L 7.09375 -1.921875 C 9.625 -1.921875 11.625 -3.210938 13.09375 -5.796875 C 14.5625 -8.390625 15.296875 -12.070312 15.296875 -16.84375 C 15.296875 -21.601562 14.535156 -25.257812 13.015625 -27.8125 C 11.503906 -30.375 9.5 -31.65625 7 -31.65625 L 4.796875 -31.65625 Z M 4.796875 -1.921875 "/></g></g></g><g fill="#988051" fill-opacity="1"><g transform="translate(526.723832, 36.704445)"><g><path d="M 2.6875 0 L 2.6875 -33.578125 L 14.109375 -33.578125 L 14.109375 -31.65625 L 4.796875 -31.65625 L 4.796875 -18.859375 L 13.28125 -18.859375 L 13.28125 -16.9375 L 4.796875 -16.9375 L 4.796875 -1.921875 L 14.25 -1.921875 L 14.25 0 Z M 2.6875 0 "/></g></g></g><g fill="#988051" fill-opacity="1"><g transform="translate(556.702912, 36.704445)"><g><path d="M 7.4375 0.4375 C 5.382812 0.4375 3.273438 -0.265625 1.109375 -1.671875 L 1.921875 -3.640625 C 3.035156 -2.878906 4.03125 -2.34375 4.90625 -2.03125 C 5.789062 -1.726562 6.648438 -1.578125 7.484375 -1.578125 C 8.921875 -1.578125 10.054688 -2.023438 10.890625 -2.921875 C 11.722656 -3.816406 12.140625 -5.019531 12.140625 -6.53125 C 12.140625 -7.488281 12.007812 -8.375 11.75 -9.1875 C 11.5 -10 11.03125 -10.941406 10.34375 -12.015625 C 9.65625 -13.085938 8.6875 -14.457031 7.4375 -16.125 C 5.9375 -18.132812 4.785156 -19.753906 3.984375 -20.984375 C 3.179688 -22.210938 2.628906 -23.273438 2.328125 -24.171875 C 2.023438 -25.066406 1.875 -26.023438 1.875 -27.046875 C 1.875 -28.390625 2.164062 -29.585938 2.75 -30.640625 C 3.34375 -31.703125 4.132812 -32.53125 5.125 -33.125 C 6.125 -33.71875 7.226562 -34.015625 8.4375 -34.015625 C 9.394531 -34.015625 10.273438 -33.875 11.078125 -33.59375 C 11.878906 -33.320312 12.695312 -32.945312 13.53125 -32.46875 L 13.53125 -30.078125 C 11.675781 -31.359375 9.960938 -32 8.390625 -32 C 7.078125 -32 6.015625 -31.550781 5.203125 -30.65625 C 4.390625 -29.757812 3.984375 -28.609375 3.984375 -27.203125 C 3.984375 -26.335938 4.117188 -25.507812 4.390625 -24.71875 C 4.660156 -23.9375 5.140625 -23.035156 5.828125 -22.015625 C 6.515625 -20.992188 7.484375 -19.679688 8.734375 -18.078125 C 10.109375 -16.390625 11.191406 -14.910156 11.984375 -13.640625 C 12.785156 -12.378906 13.363281 -11.203125 13.71875 -10.109375 C 14.070312 -9.023438 14.25 -7.878906 14.25 -6.671875 C 14.25 -5.265625 13.941406 -4.023438 13.328125 -2.953125 C 12.722656 -1.878906 11.910156 -1.046875 10.890625 -0.453125 C 9.867188 0.140625 8.71875 0.4375 7.4375 0.4375 Z M 7.4375 0.4375 "/></g></g></g><g fill="#988051" fill-opacity="1"><g transform="translate(587.065609, 36.704445)"><g><path d="M 3.015625 0 L 3.015625 -33.578125 L 5.125 -33.578125 L 5.125 0 Z M 3.015625 0 "/></g></g></g><g fill="#988051" fill-opacity="1"><g transform="translate(609.611219, 36.704445)"><g><path d="M 10.703125 0.390625 C 9.191406 0.390625 7.75 -0.265625 6.375 -1.578125 C 5 -2.890625 3.890625 -4.816406 3.046875 -7.359375 C 2.203125 -9.898438 1.78125 -13.023438 1.78125 -16.734375 C 1.78125 -20.453125 2.25 -23.582031 3.1875 -26.125 C 4.132812 -28.664062 5.382812 -30.585938 6.9375 -31.890625 C 8.488281 -33.203125 10.15625 -33.859375 11.9375 -33.859375 C 12.90625 -33.859375 13.765625 -33.738281 14.515625 -33.5 C 15.265625 -33.257812 15.894531 -32.914062 16.40625 -32.46875 L 15.921875 -30.359375 C 15.410156 -30.867188 14.796875 -31.242188 14.078125 -31.484375 C 13.359375 -31.722656 12.628906 -31.84375 11.890625 -31.84375 C 10.515625 -31.84375 9.21875 -31.257812 8 -30.09375 C 6.789062 -28.925781 5.800781 -27.222656 5.03125 -24.984375 C 4.269531 -22.753906 3.890625 -20.003906 3.890625 -16.734375 C 3.890625 -13.472656 4.222656 -10.707031 4.890625 -8.4375 C 5.566406 -6.164062 6.429688 -4.445312 7.484375 -3.28125 C 8.535156 -2.113281 9.609375 -1.53125 10.703125 -1.53125 C 12.359375 -1.53125 13.625 -2.789062 14.5 -5.3125 C 15.382812 -7.84375 15.75 -11.632812 15.59375 -16.6875 L 11.65625 -16.6875 L 11.65625 -18.46875 L 19.953125 -18.46875 L 19.953125 -16.6875 L 17.703125 -16.6875 C 17.859375 -11 17.296875 -6.726562 16.015625 -3.875 C 14.742188 -1.03125 12.972656 0.390625 10.703125 0.390625 Z M 10.703125 0.390625 "/></g></g></g><g fill="#988051" fill-opacity="1"><g transform="translate(644.290127, 36.704445)"><g><path d="M 16.6875 0.4375 L 4.9375 -26.625 L 4.703125 -26.625 L 4.703125 0 L 2.6875 0 L 2.6875 -34.015625 L 3.6875 -34.015625 L 15.15625 -7.671875 L 15.453125 -7.671875 L 15.453125 -33.578125 L 17.453125 -33.578125 L 17.453125 0.4375 Z M 16.6875 0.4375 "/></g></g></g></g></g></svg>