<svg xmlns="http://www.w3.org/2000/svg" xmlns:xlink="http://www.w3.org/1999/xlink" width="1080" zoomAndPan="magnify" viewBox="0 0 810 1012.49997" height="1350" preserveAspectRatio="xMidYMid meet" version="1.0"><defs><g/><clipPath id="594d53a7a6"><path d="M 0.199219 0 L 809.800781 0 L 809.800781 1012 L 0.199219 1012 Z M 0.199219 0 " clip-rule="nonzero"/></clipPath><clipPath id="348715324b"><rect x="0" width="708" y="0" height="320"/></clipPath></defs><g clip-path="url(#594d53a7a6)"><path fill="#ffffff" d="M 0.199219 0 L 809.800781 0 L 809.800781 1012 L 0.199219 1012 Z M 0.199219 0 " fill-opacity="1" fill-rule="nonzero"/><path fill="#ffffff" d="M 0.199219 0 L 809.800781 0 L 809.800781 1012 L 0.199219 1012 Z M 0.199219 0 " fill-opacity="1" fill-rule="nonzero"/></g><g transform="matrix(1, 0, 0, 1, 48, 345)"><g clip-path="url(#348715324b)"><g fill="#988051" fill-opacity="1"><g transform="translate(0.68966, 229.366277)"><g><path d="M 40.015625 -1.65625 L 83.59375 -1.65625 L 83.59375 0 L 40.015625 0 C 34.578125 0 29.601562 -1.335938 25.09375 -4.015625 C 20.59375 -6.691406 17.003906 -10.257812 14.328125 -14.71875 C 11.660156 -19.175781 10.328125 -24.125 10.328125 -29.5625 L 10.328125 -115.203125 L 83.59375 -115.203125 L 83.59375 -113.546875 L 40.015625 -113.546875 L 40.015625 -59.25 L 78.75 -59.25 L 78.75 -57.59375 L 40.015625 -57.59375 Z M 40.015625 -1.65625 "/></g></g></g><g fill="#988051" fill-opacity="1"><g transform="translate(82.245202, 229.366277)"><g><path d="M 8.671875 -115.203125 C 13.847656 -115.203125 18.5625 -113.945312 22.8125 -111.4375 C 27.0625 -108.9375 30.4375 -105.582031 32.9375 -101.375 C 35.445312 -97.164062 36.703125 -92.472656 36.703125 -87.296875 L 36.703125 0 C 31.597656 0 26.921875 -1.25 22.671875 -3.75 C 18.429688 -6.257812 15.035156 -9.640625 12.484375 -13.890625 C 9.941406 -18.140625 8.671875 -22.851562 8.671875 -28.03125 Z M 8.671875 -115.203125 "/></g></g></g><g fill="#988051" fill-opacity="1"><g transform="translate(119.454659, 229.366277)"><g><path d="M 71.359375 -28.546875 C 71.359375 -23.109375 70 -18.242188 67.28125 -13.953125 C 64.5625 -9.660156 60.757812 -6.257812 55.875 -3.75 C 50.988281 -1.25 45.234375 0 38.609375 0 C 32.492188 0 26.90625 -1.25 21.84375 -3.75 C 16.789062 -6.257812 12.78125 -9.828125 9.8125 -14.453125 C 6.84375 -19.085938 5.359375 -24.550781 5.359375 -30.84375 L 7.015625 -30.84375 C 7.015625 -25.0625 8.414062 -19.984375 11.21875 -15.609375 C 14.019531 -11.234375 17.863281 -7.8125 22.75 -5.34375 C 27.632812 -2.882812 33.257812 -1.65625 39.625 -1.65625 C 45.488281 -1.65625 50.179688 -2.628906 53.703125 -4.578125 C 57.234375 -6.535156 59 -9.46875 59 -13.375 C 59 -16.175781 58.019531 -18.46875 56.0625 -20.25 C 54.113281 -22.039062 51.523438 -23.550781 48.296875 -24.78125 C 45.066406 -26.019531 41.519531 -27.164062 37.65625 -28.21875 C 33.789062 -29.28125 29.945312 -30.488281 26.125 -31.84375 C 22.300781 -33.207031 18.773438 -34.972656 15.546875 -37.140625 C 12.316406 -39.304688 9.722656 -42.066406 7.765625 -45.421875 C 5.816406 -48.785156 4.84375 -52.972656 4.84375 -57.984375 C 4.84375 -63.421875 6.132812 -68.21875 8.71875 -72.375 C 11.3125 -76.539062 14.988281 -79.789062 19.75 -82.125 C 24.507812 -84.46875 30.078125 -85.640625 36.453125 -85.640625 C 45.285156 -85.640625 52.460938 -83.28125 57.984375 -78.5625 C 63.503906 -73.84375 66.265625 -66.769531 66.265625 -57.34375 L 64.859375 -57.34375 C 64.859375 -66.175781 62.222656 -72.820312 56.953125 -77.28125 C 51.691406 -81.75 44.859375 -83.984375 36.453125 -83.984375 C 30.671875 -83.984375 26.015625 -82.921875 22.484375 -80.796875 C 18.960938 -78.671875 17.203125 -75.738281 17.203125 -72 C 17.203125 -69.113281 18.175781 -66.734375 20.125 -64.859375 C 22.082031 -62.992188 24.675781 -61.378906 27.90625 -60.015625 C 31.132812 -58.660156 34.679688 -57.410156 38.546875 -56.265625 C 42.410156 -55.117188 46.253906 -53.84375 50.078125 -52.4375 C 53.898438 -51.03125 57.425781 -49.304688 60.65625 -47.265625 C 63.882812 -45.234375 66.472656 -42.707031 68.421875 -39.6875 C 70.378906 -36.675781 71.359375 -32.960938 71.359375 -28.546875 Z M 71.359375 -28.546875 "/></g></g></g><g fill="#988051" fill-opacity="1"><g transform="translate(187.247612, 229.366277)"><g><path d="M 79.265625 -82.328125 L 56.453125 -61.546875 L 90.46875 0 L 75.3125 0 C 70.125 0 65.28125 -1.359375 60.78125 -4.078125 C 56.28125 -6.796875 52.84375 -10.492188 50.46875 -15.171875 L 36.703125 -41.671875 L 36.703125 0 C 31.597656 0 26.921875 -1.25 22.671875 -3.75 C 18.429688 -6.257812 15.035156 -9.640625 12.484375 -13.890625 C 9.941406 -18.140625 8.671875 -22.851562 8.671875 -28.03125 L 8.671875 -115.203125 C 13.847656 -115.203125 18.5625 -113.945312 22.8125 -111.4375 C 27.0625 -108.9375 30.4375 -105.582031 32.9375 -101.375 C 35.445312 -97.164062 36.703125 -92.472656 36.703125 -87.296875 L 36.703125 -46.125 L 76.453125 -82.328125 Z M 79.265625 -82.328125 "/></g></g></g><g fill="#988051" fill-opacity="1"><g transform="translate(271.096927, 229.366277)"><g><path d="M 87.546875 -30.84375 C 86.953125 -23.707031 85 -17.863281 81.6875 -13.3125 C 78.375 -8.769531 74.144531 -5.414062 69 -3.25 C 63.863281 -1.082031 58.109375 0 51.734375 0 C 42.390625 0 34.171875 -1.78125 27.078125 -5.34375 C 19.984375 -8.914062 14.4375 -13.929688 10.4375 -20.390625 C 6.445312 -26.847656 4.453125 -34.363281 4.453125 -42.9375 C 4.453125 -51.519531 6.300781 -59 10 -65.375 C 13.695312 -71.75 18.796875 -76.71875 25.296875 -80.28125 C 31.796875 -83.851562 39.289062 -85.640625 47.78125 -85.640625 C 53.050781 -85.640625 58.0625 -84.832031 62.8125 -83.21875 C 67.570312 -81.601562 71.738281 -79.050781 75.3125 -75.5625 C 78.882812 -72.082031 81.664062 -67.625 83.65625 -62.1875 C 85.65625 -56.75 86.570312 -50.207031 86.40625 -42.5625 L 34.15625 -42.5625 C 34.15625 -33.132812 35.171875 -25.65625 37.203125 -20.125 C 39.242188 -14.601562 42.195312 -10.632812 46.0625 -8.21875 C 49.925781 -5.800781 54.578125 -4.59375 60.015625 -4.59375 C 64.347656 -4.59375 68.363281 -5.484375 72.0625 -7.265625 C 75.757812 -9.046875 78.859375 -11.867188 81.359375 -15.734375 C 83.867188 -19.597656 85.421875 -24.632812 86.015625 -30.84375 Z M 47.65625 -83.984375 C 42.894531 -83.984375 39.472656 -80.5625 37.390625 -73.71875 C 35.316406 -66.882812 34.238281 -57.007812 34.15625 -44.09375 L 59.25 -44.09375 C 59.25 -46.8125 59.25 -49.929688 59.25 -53.453125 C 59.25 -56.984375 59.097656 -60.53125 58.796875 -64.09375 C 58.503906 -67.664062 57.953125 -70.957031 57.140625 -73.96875 C 56.335938 -76.988281 55.171875 -79.410156 53.640625 -81.234375 C 52.117188 -83.066406 50.125 -83.984375 47.65625 -83.984375 Z M 47.65625 -83.984375 "/></g></g></g><g fill="#988051" fill-opacity="1"><g transform="translate(355.201081, 229.366277)"><g/></g></g><g fill="#988051" fill-opacity="1"><g transform="translate(366.159695, 229.366277)"><g><path d="M 40.015625 -1.65625 L 83.984375 -1.65625 L 83.984375 0 L 40.015625 0 C 34.578125 0 29.601562 -1.335938 25.09375 -4.015625 C 20.59375 -6.691406 17.003906 -10.257812 14.328125 -14.71875 C 11.660156 -19.175781 10.328125 -24.125 10.328125 -29.5625 L 10.328125 -115.203125 C 15.847656 -115.203125 20.835938 -113.863281 25.296875 -111.1875 C 29.753906 -108.507812 33.320312 -104.941406 36 -100.484375 C 38.675781 -96.023438 40.015625 -91.078125 40.015625 -85.640625 Z M 40.015625 -1.65625 "/></g></g></g><g fill="#988051" fill-opacity="1"><g transform="translate(445.166623, 229.366277)"><g><path d="M 87.546875 -30.84375 C 86.953125 -23.707031 85 -17.863281 81.6875 -13.3125 C 78.375 -8.769531 74.144531 -5.414062 69 -3.25 C 63.863281 -1.082031 58.109375 0 51.734375 0 C 42.390625 0 34.171875 -1.78125 27.078125 -5.34375 C 19.984375 -8.914062 14.4375 -13.929688 10.4375 -20.390625 C 6.445312 -26.847656 4.453125 -34.363281 4.453125 -42.9375 C 4.453125 -51.519531 6.300781 -59 10 -65.375 C 13.695312 -71.75 18.796875 -76.71875 25.296875 -80.28125 C 31.796875 -83.851562 39.289062 -85.640625 47.78125 -85.640625 C 53.050781 -85.640625 58.0625 -84.832031 62.8125 -83.21875 C 67.570312 -81.601562 71.738281 -79.050781 75.3125 -75.5625 C 78.882812 -72.082031 81.664062 -67.625 83.65625 -62.1875 C 85.65625 -56.75 86.570312 -50.207031 86.40625 -42.5625 L 34.15625 -42.5625 C 34.15625 -33.132812 35.171875 -25.65625 37.203125 -20.125 C 39.242188 -14.601562 42.195312 -10.632812 46.0625 -8.21875 C 49.925781 -5.800781 54.578125 -4.59375 60.015625 -4.59375 C 64.347656 -4.59375 68.363281 -5.484375 72.0625 -7.265625 C 75.757812 -9.046875 78.859375 -11.867188 81.359375 -15.734375 C 83.867188 -19.597656 85.421875 -24.632812 86.015625 -30.84375 Z M 47.65625 -83.984375 C 42.894531 -83.984375 39.472656 -80.5625 37.390625 -73.71875 C 35.316406 -66.882812 34.238281 -57.007812 34.15625 -44.09375 L 59.25 -44.09375 C 59.25 -46.8125 59.25 -49.929688 59.25 -53.453125 C 59.25 -56.984375 59.097656 -60.53125 58.796875 -64.09375 C 58.503906 -67.664062 57.953125 -70.957031 57.140625 -73.96875 C 56.335938 -76.988281 55.171875 -79.410156 53.640625 -81.234375 C 52.117188 -83.066406 50.125 -83.984375 47.65625 -83.984375 Z M 47.65625 -83.984375 "/></g></g></g><g fill="#988051" fill-opacity="1"><g transform="translate(529.270805, 229.366277)"><g><path d="M 53.78125 -76.203125 C 50.375 -76.203125 47.460938 -74.882812 45.046875 -72.25 C 42.628906 -69.613281 40.71875 -66.066406 39.3125 -61.609375 C 37.90625 -57.148438 37.035156 -52.160156 36.703125 -46.640625 L 36.703125 0 L 32.375 0 C 28.039062 0 24.085938 -1.0625 20.515625 -3.1875 C 16.953125 -5.3125 14.085938 -8.175781 11.921875 -11.78125 C 9.753906 -15.394531 8.671875 -19.367188 8.671875 -23.703125 L 8.671875 -82.328125 L 13 -82.328125 C 17.414062 -82.328125 21.40625 -81.265625 24.96875 -79.140625 C 28.539062 -77.015625 31.390625 -74.164062 33.515625 -70.59375 C 35.640625 -67.03125 36.703125 -63.039062 36.703125 -58.625 C 38.398438 -66.175781 41.414062 -72.289062 45.75 -76.96875 C 50.082031 -81.644531 56.328125 -83.984375 64.484375 -83.984375 C 73.234375 -83.984375 79.921875 -81.328125 84.546875 -76.015625 C 89.179688 -70.703125 91.5 -63.628906 91.5 -54.796875 L 91.5 0 L 87.15625 0 C 82.832031 0 78.882812 -1.0625 75.3125 -3.1875 C 71.738281 -5.3125 68.867188 -8.175781 66.703125 -11.78125 C 64.546875 -15.394531 63.46875 -19.367188 63.46875 -23.703125 L 63.46875 -61.9375 C 63.46875 -71.445312 60.238281 -76.203125 53.78125 -76.203125 Z M 53.78125 -76.203125 "/></g></g></g><g fill="#988051" fill-opacity="1"><g transform="translate(620.765959, 229.366277)"><g><path d="M 47.78125 -85.640625 C 55.007812 -85.640625 61.382812 -84.40625 66.90625 -81.9375 C 72.425781 -79.476562 76.734375 -75.632812 79.828125 -70.40625 C 82.929688 -65.175781 84.441406 -58.484375 84.359375 -50.328125 L 84.359375 0 C 79.347656 0 74.78125 -1.226562 70.65625 -3.6875 C 66.539062 -6.15625 63.25 -9.46875 60.78125 -13.625 C 58.320312 -17.789062 57.09375 -22.378906 57.09375 -27.390625 L 57.09375 -29.8125 C 55.90625 -22.757812 53.78125 -17.023438 50.71875 -12.609375 C 47.65625 -8.191406 43.875 -4.984375 39.375 -2.984375 C 34.875 -0.992188 29.863281 0 24.34375 0 C 19.664062 0 15.835938 -0.867188 12.859375 -2.609375 C 9.890625 -4.347656 7.722656 -6.617188 6.359375 -9.421875 C 5.003906 -12.234375 4.328125 -15.125 4.328125 -18.09375 C 4.328125 -23.789062 6.429688 -28.675781 10.640625 -32.75 C 14.847656 -36.820312 20.859375 -40.132812 28.671875 -42.6875 C 36.484375 -45.238281 45.742188 -46.984375 56.453125 -47.921875 L 56.453125 -59 C 56.453125 -66.90625 55.070312 -72.703125 52.3125 -76.390625 C 49.550781 -80.085938 44.984375 -81.9375 38.609375 -81.9375 C 33.171875 -81.9375 28.265625 -80.535156 23.890625 -77.734375 C 19.515625 -74.929688 16.222656 -70.851562 14.015625 -65.5 L 12.234375 -65.5 C 14.785156 -72.039062 19.078125 -77.03125 25.109375 -80.46875 C 31.140625 -83.914062 38.695312 -85.640625 47.78125 -85.640625 Z M 32.375 -23.578125 C 32.375 -19.671875 33.222656 -16.738281 34.921875 -14.78125 C 36.617188 -12.820312 38.867188 -11.84375 41.671875 -11.84375 C 43.796875 -11.84375 46.003906 -12.773438 48.296875 -14.640625 C 50.585938 -16.515625 52.519531 -19.703125 54.09375 -24.203125 C 55.664062 -28.710938 56.453125 -34.914062 56.453125 -42.8125 L 56.453125 -46.640625 C 49.398438 -45.535156 43.625 -43.03125 39.125 -39.125 C 34.625 -35.21875 32.375 -30.035156 32.375 -23.578125 Z M 32.375 -23.578125 "/></g></g></g></g></g></svg>