<svg xmlns="http://www.w3.org/2000/svg" width="2720" viewBox="0 0 680 50" height="200" preserveAspectRatio="xMidYMid meet" version="1.0"><defs><clipPath id="3164ce4672"><rect x="0" width="681" y="0" height="50"/></clipPath></defs><g clip-path="url(#3164ce4672)"><g fill="#988051" fill-opacity="1"><g transform="translate(1.541826, 36.704445)"><g><path d="M 3.015625 0 L 3.015625 -33.578125 L 5.125 -33.578125 L 5.125 0 Z M 3.015625 0 "/></g></g></g><g fill="#988051" fill-opacity="1"><g transform="translate(24.087464, 36.704445)"><g><path d="M 16.6875 0.4375 L 4.9375 -26.625 L 4.703125 -26.625 L 4.703125 0 L 2.6875 0 L 2.6875 -34.015625 L 3.6875 -34.015625 L 15.15625 -7.671875 L 15.453125 -7.671875 L 15.453125 -33.578125 L 17.453125 -33.578125 L 17.453125 0.4375 Z M 16.6875 0.4375 "/></g></g></g><g fill="#988051" fill-opacity="1"><g transform="translate(58.622467, 36.704445)"><g><path d="M 8.921875 0.4375 L 0.90625 -33.578125 L 3.125 -33.578125 L 9.3125 -6.375 L 9.59375 -6.375 L 15.78125 -33.578125 L 17.890625 -33.578125 L 9.875 0.4375 Z M 8.921875 0.4375 "/></g></g></g><g fill="#988051" fill-opacity="1"><g transform="translate(91.814669, 36.704445)"><g><path d="M 2.6875 0 L 2.6875 -33.578125 L 14.109375 -33.578125 L 14.109375 -31.65625 L 4.796875 -31.65625 L 4.796875 -18.859375 L 13.28125 -18.859375 L 13.28125 -16.9375 L 4.796875 -16.9375 L 4.796875 -1.921875 L 14.25 -1.921875 L 14.25 0 Z M 2.6875 0 "/></g></g></g><g fill="#988051" fill-opacity="1"><g transform="translate(121.793722, 36.704445)"><g><path d="M 7.4375 0.4375 C 5.382812 0.4375 3.273438 -0.265625 1.109375 -1.671875 L 1.921875 -3.640625 C 3.035156 -2.878906 4.03125 -2.34375 4.90625 -2.03125 C 5.789062 -1.726562 6.648438 -1.578125 7.484375 -1.578125 C 8.921875 -1.578125 10.054688 -2.023438 10.890625 -2.921875 C 11.722656 -3.816406 12.140625 -5.019531 12.140625 -6.53125 C 12.140625 -7.488281 12.007812 -8.375 11.75 -9.1875 C 11.5 -10 11.03125 -10.941406 10.34375 -12.015625 C 9.65625 -13.085938 8.6875 -14.457031 7.4375 -16.125 C 5.9375 -18.132812 4.785156 -19.753906 3.984375 -20.984375 C 3.179688 -22.210938 2.628906 -23.273438 2.328125 -24.171875 C 2.023438 -25.066406 1.875 -26.023438 1.875 -27.046875 C 1.875 -28.390625 2.164062 -29.585938 2.75 -30.640625 C 3.34375 -31.703125 4.132812 -32.53125 5.125 -33.125 C 6.125 -33.71875 7.226562 -34.015625 8.4375 -34.015625 C 9.394531 -34.015625 10.273438 -33.875 11.078125 -33.59375 C 11.878906 -33.320312 12.695312 -32.945312 13.53125 -32.46875 L 13.53125 -30.078125 C 11.675781 -31.359375 9.960938 -32 8.390625 -32 C 7.078125 -32 6.015625 -31.550781 5.203125 -30.65625 C 4.390625 -29.757812 3.984375 -28.609375 3.984375 -27.203125 C 3.984375 -26.335938 4.117188 -25.507812 4.390625 -24.71875 C 4.660156 -23.9375 5.140625 -23.035156 5.828125 -22.015625 C 6.515625 -20.992188 7.484375 -19.679688 8.734375 -18.078125 C 10.109375 -16.390625 11.191406 -14.910156 11.984375 -13.640625 C 12.785156 -12.378906 13.363281 -11.203125 13.71875 -10.109375 C 14.070312 -9.023438 14.25 -7.878906 14.25 -6.671875 C 14.25 -5.265625 13.941406 -4.023438 13.328125 -2.953125 C 12.722656 -1.878906 11.910156 -1.046875 10.890625 -0.453125 C 9.867188 0.140625 8.71875 0.4375 7.4375 0.4375 Z M 7.4375 0.4375 "/></g></g></g><g fill="#988051" fill-opacity="1"><g transform="translate(152.156419, 36.704445)"><g><path d="M 6.046875 0 L 6.046875 -31.65625 L 0.578125 -31.65625 L 0.578125 -33.578125 L 13.625 -33.578125 L 13.625 -31.65625 L 8.15625 -31.65625 L 8.15625 0 Z M 6.046875 0 "/></g></g></g><g fill="#988051" fill-opacity="1"><g transform="translate(180.744712, 36.704445)"><g><path d="M 2.453125 -9.984375 L 2.453125 -11.703125 L 10.84375 -11.703125 L 10.84375 -9.984375 Z M 2.453125 -9.984375 "/></g></g></g><g fill="#988051" fill-opacity="1"><g transform="translate(208.469768, 36.704445)"><g><path d="M 2.6875 0 L 2.6875 -33.578125 L 7.34375 -33.578125 C 9.03125 -33.578125 10.570312 -33.207031 11.96875 -32.46875 C 13.363281 -31.738281 14.46875 -30.691406 15.28125 -29.328125 C 16.09375 -27.972656 16.5 -26.335938 16.5 -24.421875 C 16.5 -22.367188 15.992188 -20.539062 14.984375 -18.9375 C 13.984375 -17.34375 12.570312 -16.195312 10.75 -15.5 L 16.890625 0 L 14.390625 0 L 8.78125 -14.875 L 4.796875 -14.875 L 4.796875 0 Z M 4.796875 -16.84375 L 7.34375 -16.84375 C 8.6875 -16.84375 9.890625 -17.164062 10.953125 -17.8125 C 12.023438 -18.46875 12.863281 -19.363281 13.46875 -20.5 C 14.082031 -21.632812 14.390625 -22.925781 14.390625 -24.375 C 14.390625 -26.644531 13.71875 -28.425781 12.375 -29.71875 C 11.03125 -31.007812 9.320312 -31.65625 7.25 -31.65625 L 4.796875 -31.65625 Z M 4.796875 -16.84375 "/></g></g></g><g fill="#988051" fill-opacity="1"><g transform="translate(241.230339, 36.704445)"><g><path d="M 2.6875 0 L 2.6875 -33.578125 L 14.109375 -33.578125 L 14.109375 -31.65625 L 4.796875 -31.65625 L 4.796875 -18.859375 L 13.28125 -18.859375 L 13.28125 -16.9375 L 4.796875 -16.9375 L 4.796875 -1.921875 L 14.25 -1.921875 L 14.25 0 Z M 2.6875 0 "/></g></g></g><g fill="#988051" fill-opacity="1"><g transform="translate(271.209391, 36.704445)"><g><path d="M 16.6875 0.4375 L 4.9375 -26.625 L 4.703125 -26.625 L 4.703125 0 L 2.6875 0 L 2.6875 -34.015625 L 3.6875 -34.015625 L 15.15625 -7.671875 L 15.453125 -7.671875 L 15.453125 -33.578125 L 17.453125 -33.578125 L 17.453125 0.4375 Z M 16.6875 0.4375 "/></g></g></g><g fill="#988051" fill-opacity="1"><g transform="translate(305.744393, 36.704445)"><g><path d="M 9.734375 0.4375 C 7.460938 0.4375 5.566406 -1.039062 4.046875 -4 C 2.535156 -6.957031 1.78125 -11.222656 1.78125 -16.796875 C 1.78125 -22.359375 2.535156 -26.617188 4.046875 -29.578125 C 5.566406 -32.535156 7.460938 -34.015625 9.734375 -34.015625 C 12.003906 -34.015625 13.898438 -32.535156 15.421875 -29.578125 C 16.941406 -26.617188 17.703125 -22.359375 17.703125 -16.796875 C 17.703125 -11.222656 16.941406 -6.957031 15.421875 -4 C 13.898438 -1.039062 12.003906 0.4375 9.734375 0.4375 Z M 9.734375 -1.484375 C 11.398438 -1.484375 12.789062 -2.800781 13.90625 -5.4375 C 15.03125 -8.082031 15.59375 -11.867188 15.59375 -16.796875 C 15.59375 -21.710938 15.03125 -25.488281 13.90625 -28.125 C 12.789062 -30.769531 11.398438 -32.09375 9.734375 -32.09375 C 8.078125 -32.09375 6.6875 -30.769531 5.5625 -28.125 C 4.445312 -25.488281 3.890625 -21.710938 3.890625 -16.796875 C 3.890625 -11.867188 4.445312 -8.082031 5.5625 -5.4375 C 6.6875 -2.800781 8.078125 -1.484375 9.734375 -1.484375 Z M 9.734375 -1.484375 "/></g></g></g><g fill="#988051" fill-opacity="1"><g transform="translate(339.607996, 36.704445)"><g><path d="M 8.921875 0.4375 L 0.90625 -33.578125 L 3.125 -33.578125 L 9.3125 -6.375 L 9.59375 -6.375 L 15.78125 -33.578125 L 17.890625 -33.578125 L 9.875 0.4375 Z M 8.921875 0.4375 "/></g></g></g><g fill="#988051" fill-opacity="1"><g transform="translate(372.800199, 36.704445)"><g><path d="M 1.34375 0 L 9.359375 -34.015625 L 10.3125 -34.015625 L 18.328125 0 L 16.125 0 L 14.15625 -9.40625 L 5.421875 -9.40625 L 3.453125 0 Z M 5.796875 -11.328125 L 13.765625 -11.328125 L 9.921875 -27.828125 L 9.640625 -27.828125 Z M 5.796875 -11.328125 "/></g></g></g><g fill="#988051" fill-opacity="1"><g transform="translate(406.85561, 36.704445)"><g><path d="M 6.046875 0 L 6.046875 -31.65625 L 0.578125 -31.65625 L 0.578125 -33.578125 L 13.625 -33.578125 L 13.625 -31.65625 L 8.15625 -31.65625 L 8.15625 0 Z M 6.046875 0 "/></g></g></g><g fill="#988051" fill-opacity="1"><g transform="translate(435.443903, 36.704445)"><g><path d="M 2.6875 0 L 2.6875 -33.578125 L 14.109375 -33.578125 L 14.109375 -31.65625 L 4.796875 -31.65625 L 4.796875 -18.859375 L 13.28125 -18.859375 L 13.28125 -16.9375 L 4.796875 -16.9375 L 4.796875 -1.921875 L 14.25 -1.921875 L 14.25 0 Z M 2.6875 0 "/></g></g></g><g fill="#988051" fill-opacity="1"><g transform="translate(465.422928, 36.704445)"><g><path d="M 2.453125 -9.984375 L 2.453125 -11.703125 L 10.84375 -11.703125 L 10.84375 -9.984375 Z M 2.453125 -9.984375 "/></g></g></g><g fill="#988051" fill-opacity="1"><g transform="translate(493.148012, 36.704445)"><g><path d="M 2.6875 0 L 2.6875 -33.578125 L 7.046875 -33.578125 C 10.179688 -33.578125 12.691406 -32.128906 14.578125 -29.234375 C 16.460938 -26.335938 17.40625 -22.207031 17.40625 -16.84375 C 17.40625 -11.46875 16.460938 -7.316406 14.578125 -4.390625 C 12.691406 -1.460938 10.179688 0 7.046875 0 Z M 4.796875 -1.921875 L 7.09375 -1.921875 C 9.625 -1.921875 11.625 -3.210938 13.09375 -5.796875 C 14.5625 -8.390625 15.296875 -12.070312 15.296875 -16.84375 C 15.296875 -21.601562 14.535156 -25.257812 13.015625 -27.8125 C 11.503906 -30.375 9.5 -31.65625 7 -31.65625 L 4.796875 -31.65625 Z M 4.796875 -1.921875 "/></g></g></g><g fill="#988051" fill-opacity="1"><g transform="translate(526.723832, 36.704445)"><g><path d="M 2.6875 0 L 2.6875 -33.578125 L 14.109375 -33.578125 L 14.109375 -31.65625 L 4.796875 -31.65625 L 4.796875 -18.859375 L 13.28125 -18.859375 L 13.28125 -16.9375 L 4.796875 -16.9375 L 4.796875 -1.921875 L 14.25 -1.921875 L 14.25 0 Z M 2.6875 0 "/></g></g></g><g fill="#988051" fill-opacity="1"><g transform="translate(556.702912, 36.704445)"><g><path d="M 7.4375 0.4375 C 5.382812 0.4375 3.273438 -0.265625 1.109375 -1.671875 L 1.921875 -3.640625 C 3.035156 -2.878906 4.03125 -2.34375 4.90625 -2.03125 C 5.789062 -1.726562 6.648438 -1.578125 7.484375 -1.578125 C 8.921875 -1.578125 10.054688 -2.023438 10.890625 -2.921875 C 11.722656 -3.816406 12.140625 -5.019531 12.140625 -6.53125 C 12.140625 -7.488281 12.007812 -8.375 11.75 -9.1875 C 11.5 -10 11.03125 -10.941406 10.34375 -12.015625 C 9.65625 -13.085938 8.6875 -14.457031 7.4375 -16.125 C 5.9375 -18.132812 4.785156 -19.753906 3.984375 -20.984375 C 3.179688 -22.210938 2.628906 -23.273438 2.328125 -24.171875 C 2.023438 -25.066406 1.875 -26.023438 1.875 -27.046875 C 1.875 -28.390625 2.164062 -29.585938 2.75 -30.640625 C 3.34375 -31.703125 4.132812 -32.53125 5.125 -33.125 C 6.125 -33.71875 7.226562 -34.015625 8.4375 -34.015625 C 9.394531 -34.015625 10.273438 -33.875 11.078125 -33.59375 C 11.878906 -33.320312 12.695312 -32.945312 13.53125 -32.46875 L 13.53125 -30.078125 C 11.675781 -31.359375 9.960938 -32 8.390625 -32 C 7.078125 -32 6.015625 -31.550781 5.203125 -30.65625 C 4.390625 -29.757812 3.984375 -28.609375 3.984375 -27.203125 C 3.984375 -26.335938 4.117188 -25.507812 4.390625 -24.71875 C 4.660156 -23.9375 5.140625 -23.035156 5.828125 -22.015625 C 6.515625 -20.992188 7.484375 -19.679688 8.734375 -18.078125 C 10.109375 -16.390625 11.191406 -14.910156 11.984375 -13.640625 C 12.785156 -12.378906 13.363281 -11.203125 13.71875 -10.109375 C 14.070312 -9.023438 14.25 -7.878906 14.25 -6.671875 C 14.25 -5.265625 13.941406 -4.023438 13.328125 -2.953125 C 12.722656 -1.878906 11.910156 -1.046875 10.890625 -0.453125 C 9.867188 0.140625 8.71875 0.4375 7.4375 0.4375 Z M 7.4375 0.4375 "/></g></g></g><g fill="#988051" fill-opacity="1"><g transform="translate(587.065609, 36.704445)"><g><path d="M 3.015625 0 L 3.015625 -33.578125 L 5.125 -33.578125 L 5.125 0 Z M 3.015625 0 "/></g></g></g><g fill="#988051" fill-opacity="1"><g transform="translate(609.611219, 36.704445)"><g><path d="M 10.703125 0.390625 C 9.191406 0.390625 7.75 -0.265625 6.375 -1.578125 C 5 -2.890625 3.890625 -4.816406 3.046875 -7.359375 C 2.203125 -9.898438 1.78125 -13.023438 1.78125 -16.734375 C 1.78125 -20.453125 2.25 -23.582031 3.1875 -26.125 C 4.132812 -28.664062 5.382812 -30.585938 6.9375 -31.890625 C 8.488281 -33.203125 10.15625 -33.859375 11.9375 -33.859375 C 12.90625 -33.859375 13.765625 -33.738281 14.515625 -33.5 C 15.265625 -33.257812 15.894531 -32.914062 16.40625 -32.46875 L 15.921875 -30.359375 C 15.410156 -30.867188 14.796875 -31.242188 14.078125 -31.484375 C 13.359375 -31.722656 12.628906 -31.84375 11.890625 -31.84375 C 10.515625 -31.84375 9.21875 -31.257812 8 -30.09375 C 6.789062 -28.925781 5.800781 -27.222656 5.03125 -24.984375 C 4.269531 -22.753906 3.890625 -20.003906 3.890625 -16.734375 C 3.890625 -13.472656 4.222656 -10.707031 4.890625 -8.4375 C 5.566406 -6.164062 6.429688 -4.445312 7.484375 -3.28125 C 8.535156 -2.113281 9.609375 -1.53125 10.703125 -1.53125 C 12.359375 -1.53125 13.625 -2.789062 14.5 -5.3125 C 15.382812 -7.84375 15.75 -11.632812 15.59375 -16.6875 L 11.65625 -16.6875 L 11.65625 -18.46875 L 19.953125 -18.46875 L 19.953125 -16.6875 L 17.703125 -16.6875 C 17.859375 -11 17.296875 -6.726562 16.015625 -3.875 C 14.742188 -1.03125 12.972656 0.390625 10.703125 0.390625 Z M 10.703125 0.390625 "/></g></g></g><g fill="#988051" fill-opacity="1"><g transform="translate(644.290127, 36.704445)"><g><path d="M 16.6875 0.4375 L 4.9375 -26.625 L 4.703125 -26.625 L 4.703125 0 L 2.6875 0 L 2.6875 -34.015625 L 3.6875 -34.015625 L 15.15625 -7.671875 L 15.453125 -7.671875 L 15.453125 -33.578125 L 17.453125 -33.578125 L 17.453125 0.4375 Z M 16.6875 0.4375 "/></g></g></g></g></svg>